<svg xmlns="http://www.w3.org/2000/svg" width="376.057" height="51.651" viewBox="0 0 376.057 51.651">
  <g id="Group_1" data-name="Group 1" transform="translate(188.459 -1268.686)">
    <path id="Path_1" data-name="Path 1" d="M47.458,1268.97v51.167H57.691V1279.2Z" fill="#e6e1ce"/>
    <path id="Path_2" data-name="Path 2" d="M156.614,1268.97v51.167h10.233V1279.2Z" fill="#c0bba3"/>
    <path id="Path_3" data-name="Path 3" d="M177.081,1268.97v51.167h10.233V1279.2Z" fill="#e6e1ce"/>
    <path id="Path_4" data-name="Path 4" d="M37.224,1268.97,26.991,1279.2H47.457V1268.97Z" fill="#c0bba3"/>
    <path id="Path_5" data-name="Path 5" d="M-188.176,1299.67v20.467l10.233-10.234V1299.67Z" fill="#c0bba3"/>
    <path id="Path_6" data-name="Path 6" d="M-188.176,1279.2v20.467l10.233-10.234V1279.2Z" fill="#c0bba3"/>
    <rect id="Rectangle_1" data-name="Rectangle 1" width="10.233" height="20.467" transform="translate(-75.609 1299.67)" fill="#d8d1ba"/>
    <rect id="Rectangle_2" data-name="Rectangle 2" width="10.233" height="20.467" transform="translate(-55.141 1299.67)" fill="#d8d1ba"/>
    <path id="Path_7" data-name="Path 7" d="M-75.608,1279.2v20.467l10.233-10.234V1279.2Z" fill="#c0bba3"/>
    <path id="Path_8" data-name="Path 8" d="M-55.141,1279.2v10.233l10.233,10.234V1279.2Z" fill="#c0bba3"/>
    <path id="Path_9" data-name="Path 9" d="M-150.653,1268.97v51.167l10.233-10.233v-30.7Z" fill="#c0bba3"/>
    <path id="Path_10" data-name="Path 10" d="M-164.3,1268.97h-13.645l-10.233,10.233H-164.3l10.233-10.233Z" fill="#e6e1ce"/>
    <path id="Path_11" data-name="Path 11" d="M-92.664,1289.436l-10.233,10.233h10.233l10.233-10.233Z" fill="#d8d1ba"/>
    <path id="Path_12" data-name="Path 12" d="M-92.664,1299.67V1309.9h10.233v-20.466Z" fill="#c0bba3"/>
    <path id="Path_13" data-name="Path 13" d="M-140.42,1309.9l-10.233,10.233h20.466V1309.9Z" fill="#d8d1ba"/>
    <path id="Path_14" data-name="Path 14" d="M-164.3,1289.436h-13.645l-10.233,10.233H-164.3l10.233-10.233Z" fill="#d8d1ba"/>
    <path id="Path_15" data-name="Path 15" d="M-130.186,1279.2v40.934l10.233-10.234v-30.7Z" fill="#d8d1ba"/>
    <path id="Path_16" data-name="Path 16" d="M-92.664,1309.9H-102.9v10.233h10.233l10.233-10.233Z" fill="#d8d1ba"/>
    <path id="Path_17" data-name="Path 17" d="M-92.664,1268.97H-102.9l-10.234,10.233h30.7Z" fill="#e6e1ce"/>
    <path id="Path_18" data-name="Path 18" d="M-55.141,1268.97H-65.374L-75.608,1279.2h30.7Z" fill="#e6e1ce"/>
    <rect id="Rectangle_3" data-name="Rectangle 3" width="10.233" height="40.934" transform="translate(6.525 1279.203)" fill="#d8d1ba"/>
    <path id="Path_19" data-name="Path 19" d="M26.991,1268.97v51.167H37.224V1279.2Z" fill="#d8d1ba"/>
    <path id="Path_20" data-name="Path 20" d="M16.758,1268.97,6.525,1279.2H26.991V1268.97Z" fill="#e6e1ce"/>
    <path id="Path_21" data-name="Path 21" d="M-55.141,1289.436H-65.374l-10.234,10.233h30.7Z" fill="#d8d1ba"/>
    <path id="Path_22" data-name="Path 22" d="M-113.131,1279.2v30.7l10.233,10.234V1279.2Z" fill="#c0bba3"/>
    <rect id="Rectangle_4" data-name="Rectangle 4" width="10.233" height="30.7" transform="translate(84.98 1279.203)" fill="#c0bba3"/>
    <path id="Path_23" data-name="Path 23" d="M84.98,1268.97H74.747L64.513,1279.2h30.7Z" fill="#e6e1ce"/>
    <rect id="Rectangle_5" data-name="Rectangle 5" width="10.233" height="30.7" transform="translate(64.513 1279.203)" fill="#c0bba3"/>
    <path id="Path_24" data-name="Path 24" d="M84.98,1309.9H64.513l10.234,10.233H84.98L95.213,1309.9Z" fill="#d8d1ba"/>
    <path id="Path_25" data-name="Path 25" d="M122.5,1289.436h10.233L122.5,1299.669Z" fill="#d8d1ba"/>
    <rect id="Rectangle_6" data-name="Rectangle 6" width="10.233" height="20.467" transform="translate(102.035 1299.67)" fill="#d8d1ba"/>
    <path id="Path_26" data-name="Path 26" d="M102.036,1289.436h10.233l-10.233,10.233Z" fill="#d8d1ba"/>
    <rect id="Rectangle_7" data-name="Rectangle 7" width="10.233" height="10.233" transform="translate(102.036 1279.204)" fill="#d8d1ba"/>
    <rect id="Rectangle_8" data-name="Rectangle 8" width="10.233" height="10.233" transform="translate(122.504 1279.204)" fill="#d8d1ba"/>
    <path id="Path_27" data-name="Path 27" d="M122.5,1279.2V1268.97l10.233,10.233Z" fill="#d8d1ba"/>
    <path id="Path_28" data-name="Path 28" d="M122.5,1309.9V1299.67l10.233,10.233Z" fill="#d8d1ba"/>
    <rect id="Rectangle_9" data-name="Rectangle 9" width="10.233" height="10.233" transform="translate(112.269 1289.437)" fill="#d8d1ba"/>
    <rect id="Rectangle_10" data-name="Rectangle 10" width="10.233" height="10.233" transform="translate(122.503 1309.903)" fill="#d8d1ba"/>
    <path id="Path_29" data-name="Path 29" d="M112.269,1299.67v-10.233l-10.233,10.233Z" fill="#d8d1ba"/>
    <path id="Path_30" data-name="Path 30" d="M122.5,1299.67H112.27L122.5,1309.9Z" fill="#d8d1ba"/>
    <rect id="Rectangle_11" data-name="Rectangle 11" width="10.233" height="20.467" transform="translate(102.035 1299.67)" fill="#d8d1ba"/>
    <path id="Path_31" data-name="Path 31" d="M102.036,1268.97v30.7l10.233-10.233V1279.2Z" fill="#c0bba3"/>
    <rect id="Rectangle_12" data-name="Rectangle 12" width="10.233" height="10.233" transform="translate(122.504 1279.204)" fill="#c0bba3"/>
    <path id="Path_32" data-name="Path 32" d="M139.558,1268.97v51.167h10.233V1279.2Z" fill="#d8d1ba"/>
    <path id="Path_33" data-name="Path 33" d="M122.5,1299.67v20.467h10.233V1309.9Z" fill="#d8d1ba"/>
    <path id="Path_34" data-name="Path 34" d="M122.5,1289.436H112.27l-10.234,10.233H122.5l10.233-10.233Z" fill="#d8d1ba"/>
    <path id="Path_35" data-name="Path 35" d="M122.5,1299.67H112.27L122.5,1309.9Z" fill="#c0bba3"/>
    <path id="Path_36" data-name="Path 36" d="M122.5,1268.97H102.036L112.27,1279.2h20.466Z" fill="#e6e1ce"/>
    <path id="Path_37" data-name="Path 37" d="M-17.619,1289.436H-7.386l-10.233,10.233Z" fill="#d8d1ba"/>
    <rect id="Rectangle_13" data-name="Rectangle 13" width="10.233" height="20.467" transform="translate(-38.086 1299.67)" fill="#d8d1ba"/>
    <path id="Path_38" data-name="Path 38" d="M-38.086,1289.436h10.233l-10.233,10.233Z" fill="#d8d1ba"/>
    <rect id="Rectangle_14" data-name="Rectangle 14" width="10.233" height="10.233" transform="translate(-38.085 1279.204)" fill="#d8d1ba"/>
    <rect id="Rectangle_15" data-name="Rectangle 15" width="10.233" height="10.233" transform="translate(-17.618 1279.204)" fill="#d8d1ba"/>
    <path id="Path_39" data-name="Path 39" d="M-17.619,1279.2V1268.97L-7.386,1279.2Z" fill="#d8d1ba"/>
    <path id="Path_40" data-name="Path 40" d="M-17.619,1309.9V1299.67L-7.386,1309.9Z" fill="#d8d1ba"/>
    <rect id="Rectangle_16" data-name="Rectangle 16" width="10.233" height="10.233" transform="translate(-27.852 1289.437)" fill="#d8d1ba"/>
    <rect id="Rectangle_17" data-name="Rectangle 17" width="10.233" height="10.233" transform="translate(-17.619 1309.903)" fill="#d8d1ba"/>
    <path id="Path_41" data-name="Path 41" d="M-27.852,1299.67v-10.233l-10.233,10.233Z" fill="#d8d1ba"/>
    <path id="Path_42" data-name="Path 42" d="M-17.619,1299.67H-27.852l10.233,10.233Z" fill="#d8d1ba"/>
    <rect id="Rectangle_18" data-name="Rectangle 18" width="10.233" height="20.467" transform="translate(-38.086 1299.67)" fill="#d8d1ba"/>
    <path id="Path_43" data-name="Path 43" d="M-38.086,1268.97v30.7l10.233-10.233V1279.2Z" fill="#d8d1ba"/>
    <rect id="Rectangle_19" data-name="Rectangle 19" width="10.233" height="10.233" transform="translate(-17.618 1279.204)" fill="#c0bba3"/>
    <path id="Path_44" data-name="Path 44" d="M-17.619,1299.67v20.467H-7.386V1309.9Z" fill="#d8d1ba"/>
    <path id="Path_45" data-name="Path 45" d="M-17.619,1289.436H-27.852l-10.234,10.233h20.467l10.233-10.233Z" fill="#d8d1ba"/>
    <path id="Path_46" data-name="Path 46" d="M-17.619,1299.67H-27.852l10.233,10.233Z" fill="#c0bba3"/>
    <path id="Path_47" data-name="Path 47" d="M-17.619,1268.97H-38.086l10.234,10.233H-7.386Z" fill="#e6e1ce"/>
    <path id="Path_48" data-name="Path 48" d="M-130.186,1268.97h-20.467l10.234,10.233h20.466Z" fill="#e6e1ce"/>
    <path id="Path_49" data-name="Path 49" d="M166.847,1268.97H156.614l10.233,10.233H177.08V1268.97Z" fill="#c0bba3"/>
    <path id="Path_50" data-name="Path 50" d="M-164.3,1309.9h-13.645l-10.233,10.233H-164.3l10.233-10.233Z" fill="#d8d1ba"/>
    <line id="Line_1" data-name="Line 1" y1="10.233" x2="10.044" transform="translate(-188.176 1268.97)" fill="none" stroke="#1a1818" stroke-miterlimit="10" stroke-width="0.567"/>
    <line id="Line_2" data-name="Line 2" y1="10.233" x2="10.044" transform="translate(-113.131 1268.97)" fill="none" stroke="#1a1818" stroke-miterlimit="10" stroke-width="0.567"/>
    <line id="Line_3" data-name="Line 3" y1="10.233" x2="10.044" transform="translate(-75.419 1268.97)" fill="none" stroke="#1a1818" stroke-miterlimit="10" stroke-width="0.567"/>
    <line id="Line_4" data-name="Line 4" y1="10.233" x2="10.044" transform="translate(6.524 1268.97)" fill="none" stroke="#1a1818" stroke-miterlimit="10" stroke-width="0.567"/>
    <line id="Line_5" data-name="Line 5" y1="5.093" x2="4.951" transform="translate(32.084 1268.969)" fill="none" stroke="#1a1818" stroke-miterlimit="10" stroke-width="0.567"/>
    <line id="Line_6" data-name="Line 6" y1="10.233" x2="10.044" transform="translate(-164.108 1268.97)" fill="none" stroke="#1a1818" stroke-miterlimit="10" stroke-width="0.567"/>
    <line id="Line_7" data-name="Line 7" y1="10.233" x2="10.044" transform="translate(-164.108 1289.437)" fill="none" stroke="#1a1818" stroke-miterlimit="10" stroke-width="0.567"/>
    <line id="Line_8" data-name="Line 8" y1="10.233" x2="10.044" transform="translate(-129.997 1309.904)" fill="none" stroke="#1a1818" stroke-miterlimit="10" stroke-width="0.567"/>
    <line id="Line_9" data-name="Line 9" y1="10.233" x2="10.044" transform="translate(-164.108 1309.904)" fill="none" stroke="#1a1818" stroke-miterlimit="10" stroke-width="0.567"/>
    <line id="Line_10" data-name="Line 10" y1="10.233" x2="10.044" transform="translate(-187.986 1289.437)" fill="none" stroke="#1a1818" stroke-miterlimit="10" stroke-width="0.567"/>
    <line id="Line_11" data-name="Line 11" y1="10.233" x2="10.044" transform="translate(-92.664 1289.437)" fill="none" stroke="#1a1818" stroke-miterlimit="10" stroke-width="0.567"/>
    <line id="Line_12" data-name="Line 12" y1="10.233" x2="10.044" transform="translate(-75.419 1289.437)" fill="none" stroke="#1a1818" stroke-miterlimit="10" stroke-width="0.567"/>
    <line id="Line_13" data-name="Line 13" y1="10.233" x2="10.044" transform="translate(-92.474 1309.904)" fill="none" stroke="#1a1818" stroke-miterlimit="10" stroke-width="0.567"/>
    <line id="Line_14" data-name="Line 14" y1="10.233" x2="10.044" transform="translate(-102.708 1289.437)" fill="none" stroke="#1a1818" stroke-miterlimit="10" stroke-width="0.567"/>
    <line id="Line_15" data-name="Line 15" y1="10.233" x2="10.044" transform="translate(-187.986 1309.904)" fill="none" stroke="#1a1818" stroke-miterlimit="10" stroke-width="0.567"/>
    <line id="Line_16" data-name="Line 16" x2="23.878" transform="translate(-188.176 1279.203)" fill="none" stroke="#1a1818" stroke-miterlimit="10" stroke-width="0.567"/>
    <line id="Line_17" data-name="Line 17" x2="23.878" transform="translate(-188.176 1299.67)" fill="none" stroke="#1a1818" stroke-miterlimit="10" stroke-width="0.567"/>
    <line id="Line_18" data-name="Line 18" x2="23.878" transform="translate(-177.942 1268.97)" fill="none" stroke="#1a1818" stroke-miterlimit="10" stroke-width="0.567"/>
    <line id="Line_19" data-name="Line 19" x2="23.878" transform="translate(-177.942 1289.436)" fill="none" stroke="#1a1818" stroke-miterlimit="10" stroke-width="0.567"/>
    <line id="Line_20" data-name="Line 20" x2="23.878" transform="translate(-177.942 1309.903)" fill="none" stroke="#1a1818" stroke-miterlimit="10" stroke-width="0.567"/>
    <line id="Line_21" data-name="Line 21" y2="40.934" transform="translate(-188.176 1279.203)" fill="none" stroke="#1a1818" stroke-miterlimit="10" stroke-width="0.567"/>
    <line id="Line_22" data-name="Line 22" y2="30.7" transform="translate(-119.953 1279.203)" fill="none" stroke="#1a1818" stroke-miterlimit="10" stroke-width="0.567"/>
    <line id="Line_23" data-name="Line 23" y2="30.7" transform="translate(-140.42 1279.203)" fill="none" stroke="#1a1818" stroke-miterlimit="10" stroke-width="0.567"/>
    <line id="Line_24" data-name="Line 24" y2="30.7" transform="translate(-113.131 1279.203)" fill="none" stroke="#1a1818" stroke-miterlimit="10" stroke-width="0.567"/>
    <line id="Line_25" data-name="Line 25" y2="51.167" transform="translate(-150.653 1268.97)" fill="none" stroke="#1a1818" stroke-miterlimit="10" stroke-width="0.567"/>
    <line id="Line_26" data-name="Line 26" y2="40.934" transform="translate(-130.186 1279.203)" fill="none" stroke="#1a1818" stroke-miterlimit="10" stroke-width="0.567"/>
    <line id="Line_27" data-name="Line 27" y2="40.934" transform="translate(-102.897 1279.203)" fill="none" stroke="#1a1818" stroke-miterlimit="10" stroke-width="0.567"/>
    <line id="Line_28" data-name="Line 28" y2="10.233" transform="translate(-177.942 1279.203)" fill="none" stroke="#1a1818" stroke-miterlimit="10" stroke-width="0.567"/>
    <line id="Line_29" data-name="Line 29" y2="10.233" transform="translate(-177.942 1299.67)" fill="none" stroke="#1a1818" stroke-miterlimit="10" stroke-width="0.567"/>
    <line id="Line_30" data-name="Line 30" y2="10.233" transform="translate(-92.664 1299.67)" fill="none" stroke="#1a1818" stroke-miterlimit="10" stroke-width="0.567"/>
    <line id="Line_31" data-name="Line 31" y2="40.934" transform="translate(-75.608 1279.203)" fill="none" stroke="#1a1818" stroke-miterlimit="10" stroke-width="0.567"/>
    <line id="Line_32" data-name="Line 32" y2="40.934" transform="translate(-44.908 1279.203)" fill="none" stroke="#1a1818" stroke-miterlimit="10" stroke-width="0.567"/>
    <line id="Line_33" data-name="Line 33" y2="20.467" transform="translate(-82.43 1289.436)" fill="none" stroke="#1a1818" stroke-miterlimit="10" stroke-width="0.567"/>
    <line id="Line_34" data-name="Line 34" y2="20.467" transform="translate(-65.375 1299.67)" fill="none" stroke="#1a1818" stroke-miterlimit="10" stroke-width="0.567"/>
    <line id="Line_35" data-name="Line 35" y2="20.467" transform="translate(-27.852 1299.67)" fill="none" stroke="#1a1818" stroke-miterlimit="10" stroke-width="0.567"/>
    <line id="Line_36" data-name="Line 36" y2="20.467" transform="translate(-17.619 1299.67)" fill="none" stroke="#1a1818" stroke-miterlimit="10" stroke-width="0.567"/>
    <line id="Line_37" data-name="Line 37" y2="20.467" transform="translate(-55.141 1299.67)" fill="none" stroke="#1a1818" stroke-miterlimit="10" stroke-width="0.567"/>
    <line id="Line_38" data-name="Line 38" y2="10.233" transform="translate(-65.375 1279.203)" fill="none" stroke="#1a1818" stroke-miterlimit="10" stroke-width="0.567"/>
    <line id="Line_39" data-name="Line 39" y1="10.233" x2="10.044" transform="translate(-38.086 1289.437)" fill="none" stroke="#1a1818" stroke-miterlimit="10" stroke-width="0.567"/>
    <line id="Line_40" data-name="Line 40" y1="10.233" x2="10.044" transform="translate(-17.429 1289.437)" fill="none" stroke="#1a1818" stroke-miterlimit="10" stroke-width="0.567"/>
    <line id="Line_41" data-name="Line 41" y2="10.233" transform="translate(-28.042 1279.203)" fill="none" stroke="#1a1818" stroke-miterlimit="10" stroke-width="0.567"/>
    <line id="Line_42" data-name="Line 42" y2="10.233" transform="translate(-17.619 1279.203)" fill="none" stroke="#1a1818" stroke-miterlimit="10" stroke-width="0.567"/>
    <line id="Line_43" data-name="Line 43" y2="10.233" transform="translate(-7.385 1279.203)" fill="none" stroke="#1a1818" stroke-miterlimit="10" stroke-width="0.567"/>
    <line id="Line_44" data-name="Line 44" y2="10.233" transform="translate(-7.385 1309.903)" fill="none" stroke="#1a1818" stroke-miterlimit="10" stroke-width="0.567"/>
    <line id="Line_45" data-name="Line 45" y2="10.233" transform="translate(-55.141 1279.203)" fill="none" stroke="#1a1818" stroke-miterlimit="10" stroke-width="0.567"/>
    <line id="Line_46" data-name="Line 46" x2="10.233" y2="10.233" transform="translate(-150.653 1268.97)" fill="none" stroke="#1a1818" stroke-miterlimit="10" stroke-width="0.567"/>
    <line id="Line_47" data-name="Line 47" x2="10.233" y2="10.233" transform="translate(-130.186 1268.97)" fill="none" stroke="#1a1818" stroke-miterlimit="10" stroke-width="0.567"/>
    <line id="Line_48" data-name="Line 48" x2="10.233" y2="10.233" transform="translate(-55.141 1289.436)" fill="none" stroke="#1a1818" stroke-miterlimit="10" stroke-width="0.567"/>
    <line id="Line_49" data-name="Line 49" x2="10.233" y2="10.233" transform="translate(-92.664 1268.97)" fill="none" stroke="#1a1818" stroke-miterlimit="10" stroke-width="0.567"/>
    <line id="Line_50" data-name="Line 50" x2="10.233" y2="10.233" transform="translate(-55.141 1268.97)" fill="none" stroke="#1a1818" stroke-miterlimit="10" stroke-width="0.567"/>
    <line id="Line_51" data-name="Line 51" x2="10.233" y2="10.233" transform="translate(26.991 1268.97)" fill="none" stroke="#1a1818" stroke-miterlimit="10" stroke-width="0.567"/>
    <line id="Line_52" data-name="Line 52" x2="10.233" y2="10.233" transform="translate(-113.131 1309.903)" fill="none" stroke="#1a1818" stroke-miterlimit="10" stroke-width="0.567"/>
    <line id="Line_53" data-name="Line 53" x1="20.467" transform="translate(-140.42 1279.203)" fill="none" stroke="#1a1818" stroke-miterlimit="10" stroke-width="0.567"/>
    <line id="Line_54" data-name="Line 54" x1="30.7" transform="translate(-113.13 1279.203)" fill="none" stroke="#1a1818" stroke-miterlimit="10" stroke-width="0.567"/>
    <line id="Line_55" data-name="Line 55" x1="30.7" transform="translate(-75.608 1279.203)" fill="none" stroke="#1a1818" stroke-miterlimit="10" stroke-width="0.567"/>
    <line id="Line_56" data-name="Line 56" x1="20.467" transform="translate(6.524 1279.203)" fill="none" stroke="#1a1818" stroke-miterlimit="10" stroke-width="0.567"/>
    <line id="Line_57" data-name="Line 57" x1="10.233" transform="translate(37.225 1279.203)" fill="none" stroke="#1a1818" stroke-miterlimit="10" stroke-width="0.567"/>
    <line id="Line_58" data-name="Line 58" x1="10.233" transform="translate(166.848 1279.203)" fill="none" stroke="#1a1818" stroke-miterlimit="10" stroke-width="0.567"/>
    <line id="Line_59" data-name="Line 59" x1="10.233" transform="translate(-65.374 1289.436)" fill="none" stroke="#1a1818" stroke-miterlimit="10" stroke-width="0.567"/>
    <line id="Line_60" data-name="Line 60" x1="30.7" transform="translate(-75.608 1299.67)" fill="none" stroke="#1a1818" stroke-miterlimit="10" stroke-width="0.567"/>
    <line id="Line_61" data-name="Line 61" x1="20.467" transform="translate(-150.653 1268.97)" fill="none" stroke="#1a1818" stroke-miterlimit="10" stroke-width="0.567"/>
    <line id="Line_62" data-name="Line 62" y2="51.167" transform="translate(-38.086 1268.97)" fill="none" stroke="#1a1818" stroke-miterlimit="10" stroke-width="0.567"/>
    <line id="Line_63" data-name="Line 63" y2="51.167" transform="translate(26.991 1268.97)" fill="none" stroke="#1a1818" stroke-miterlimit="10" stroke-width="0.567"/>
    <line id="Line_64" data-name="Line 64" y2="51.167" transform="translate(47.458 1268.97)" fill="none" stroke="#1a1818" stroke-miterlimit="10" stroke-width="0.567"/>
    <line id="Line_65" data-name="Line 65" y2="40.934" transform="translate(6.524 1279.203)" fill="none" stroke="#1a1818" stroke-miterlimit="10" stroke-width="0.567"/>
    <line id="Line_66" data-name="Line 66" y2="40.934" transform="translate(16.758 1279.203)" fill="none" stroke="#1a1818" stroke-miterlimit="10" stroke-width="0.567"/>
    <line id="Line_67" data-name="Line 67" y2="40.934" transform="translate(37.224 1279.203)" fill="none" stroke="#1a1818" stroke-miterlimit="10" stroke-width="0.567"/>
    <line id="Line_68" data-name="Line 68" y2="40.934" transform="translate(57.691 1279.203)" fill="none" stroke="#1a1818" stroke-miterlimit="10" stroke-width="0.567"/>
    <line id="Line_69" data-name="Line 69" y2="40.934" transform="translate(149.792 1279.203)" fill="none" stroke="#1a1818" stroke-miterlimit="10" stroke-width="0.567"/>
    <line id="Line_70" data-name="Line 70" x2="10.233" y2="10.233" transform="translate(-38.086 1268.97)" fill="none" stroke="#1a1818" stroke-miterlimit="10" stroke-width="0.567"/>
    <line id="Line_71" data-name="Line 71" x2="10.233" y2="10.233" transform="translate(-17.619 1268.97)" fill="none" stroke="#1a1818" stroke-miterlimit="10" stroke-width="0.567"/>
    <line id="Line_72" data-name="Line 72" x2="10.233" y2="10.233" transform="translate(-27.852 1299.67)" fill="none" stroke="#1a1818" stroke-miterlimit="10" stroke-width="0.567"/>
    <line id="Line_73" data-name="Line 73" x2="10.233" y2="10.233" transform="translate(-17.619 1299.67)" fill="none" stroke="#1a1818" stroke-miterlimit="10" stroke-width="0.567"/>
    <line id="Line_74" data-name="Line 74" x1="20.467" transform="translate(-27.853 1279.203)" fill="none" stroke="#1a1818" stroke-miterlimit="10" stroke-width="0.567"/>
    <line id="Line_75" data-name="Line 75" x1="20.467" transform="translate(-27.853 1289.436)" fill="none" stroke="#1a1818" stroke-miterlimit="10" stroke-width="0.567"/>
    <line id="Line_76" data-name="Line 76" x1="20.467" transform="translate(-38.086 1299.67)" fill="none" stroke="#1a1818" stroke-miterlimit="10" stroke-width="0.567"/>
    <line id="Line_77" data-name="Line 77" x1="20.467" transform="translate(-38.086 1268.97)" fill="none" stroke="#1a1818" stroke-miterlimit="10" stroke-width="0.567"/>
    <line id="Line_78" data-name="Line 78" y2="20.467" transform="translate(112.269 1299.67)" fill="none" stroke="#1a1818" stroke-miterlimit="10" stroke-width="0.567"/>
    <line id="Line_79" data-name="Line 79" y2="20.467" transform="translate(122.503 1299.67)" fill="none" stroke="#1a1818" stroke-miterlimit="10" stroke-width="0.567"/>
    <line id="Line_80" data-name="Line 80" y1="10.233" x2="10.044" transform="translate(102.036 1289.437)" fill="none" stroke="#1a1818" stroke-miterlimit="10" stroke-width="0.567"/>
    <line id="Line_81" data-name="Line 81" y1="10.233" x2="10.044" transform="translate(122.692 1289.437)" fill="none" stroke="#1a1818" stroke-miterlimit="10" stroke-width="0.567"/>
    <line id="Line_82" data-name="Line 82" y2="10.233" transform="translate(112.08 1279.203)" fill="none" stroke="#1a1818" stroke-miterlimit="10" stroke-width="0.567"/>
    <line id="Line_83" data-name="Line 83" y2="10.233" transform="translate(122.503 1279.203)" fill="none" stroke="#1a1818" stroke-miterlimit="10" stroke-width="0.567"/>
    <line id="Line_84" data-name="Line 84" y2="10.233" transform="translate(132.736 1279.203)" fill="none" stroke="#1a1818" stroke-miterlimit="10" stroke-width="0.567"/>
    <line id="Line_85" data-name="Line 85" y2="10.233" transform="translate(132.736 1309.903)" fill="none" stroke="#1a1818" stroke-miterlimit="10" stroke-width="0.567"/>
    <line id="Line_86" data-name="Line 86" y2="51.167" transform="translate(102.036 1268.97)" fill="none" stroke="#1a1818" stroke-miterlimit="10" stroke-width="0.567"/>
    <line id="Line_87" data-name="Line 87" y2="51.167" transform="translate(139.558 1268.97)" fill="none" stroke="#1a1818" stroke-miterlimit="10" stroke-width="0.567"/>
    <line id="Line_88" data-name="Line 88" x2="10.233" y2="10.233" transform="translate(102.036 1268.97)" fill="none" stroke="#1a1818" stroke-miterlimit="10" stroke-width="0.567"/>
    <line id="Line_89" data-name="Line 89" x2="10.233" y2="10.233" transform="translate(139.558 1268.97)" fill="none" stroke="#1a1818" stroke-miterlimit="10" stroke-width="0.567"/>
    <line id="Line_90" data-name="Line 90" x2="10.233" y2="10.233" transform="translate(122.503 1268.97)" fill="none" stroke="#1a1818" stroke-miterlimit="10" stroke-width="0.567"/>
    <line id="Line_91" data-name="Line 91" x2="10.233" y2="10.233" transform="translate(112.269 1299.67)" fill="none" stroke="#1a1818" stroke-miterlimit="10" stroke-width="0.567"/>
    <line id="Line_92" data-name="Line 92" x2="10.233" y2="10.233" transform="translate(122.503 1299.67)" fill="none" stroke="#1a1818" stroke-miterlimit="10" stroke-width="0.567"/>
    <line id="Line_93" data-name="Line 93" x1="20.467" transform="translate(112.269 1279.203)" fill="none" stroke="#1a1818" stroke-miterlimit="10" stroke-width="0.567"/>
    <line id="Line_94" data-name="Line 94" x1="20.467" transform="translate(112.269 1289.436)" fill="none" stroke="#1a1818" stroke-miterlimit="10" stroke-width="0.567"/>
    <line id="Line_95" data-name="Line 95" x1="20.467" transform="translate(102.036 1299.67)" fill="none" stroke="#1a1818" stroke-miterlimit="10" stroke-width="0.567"/>
    <line id="Line_96" data-name="Line 96" x1="20.467" transform="translate(102.036 1268.97)" fill="none" stroke="#1a1818" stroke-miterlimit="10" stroke-width="0.567"/>
    <line id="Line_97" data-name="Line 97" x1="20.467" transform="translate(156.614 1268.97)" fill="none" stroke="#1a1818" stroke-miterlimit="10" stroke-width="0.567"/>
    <line id="Line_98" data-name="Line 98" x1="10.233" transform="translate(-140.419 1309.903)" fill="none" stroke="#1a1818" stroke-miterlimit="10" stroke-width="0.567"/>
    <line id="Line_99" data-name="Line 99" x1="20.467" transform="translate(-102.897 1309.903)" fill="none" stroke="#1a1818" stroke-miterlimit="10" stroke-width="0.567"/>
    <line id="Line_100" data-name="Line 100" x1="10.233" transform="translate(-102.897 1268.97)" fill="none" stroke="#1a1818" stroke-miterlimit="10" stroke-width="0.567"/>
    <line id="Line_101" data-name="Line 101" x1="10.233" transform="translate(-65.374 1268.97)" fill="none" stroke="#1a1818" stroke-miterlimit="10" stroke-width="0.567"/>
    <line id="Line_102" data-name="Line 102" y1="10.233" x2="10.044" transform="translate(64.703 1268.97)" fill="none" stroke="#1a1818" stroke-miterlimit="10" stroke-width="0.567"/>
    <line id="Line_103" data-name="Line 103" x2="10.233" y2="10.233" transform="translate(84.98 1268.97)" fill="none" stroke="#1a1818" stroke-miterlimit="10" stroke-width="0.567"/>
    <line id="Line_104" data-name="Line 104" x1="30.7" transform="translate(64.514 1279.203)" fill="none" stroke="#1a1818" stroke-miterlimit="10" stroke-width="0.567"/>
    <line id="Line_105" data-name="Line 105" x1="10.233" transform="translate(74.747 1268.97)" fill="none" stroke="#1a1818" stroke-miterlimit="10" stroke-width="0.567"/>
    <line id="Line_106" data-name="Line 106" x2="10.044" y2="10.233" transform="translate(64.703 1309.903)" fill="none" stroke="#1a1818" stroke-miterlimit="10" stroke-width="0.567"/>
    <line id="Line_107" data-name="Line 107" y1="10.233" x2="10.233" transform="translate(84.98 1309.904)" fill="none" stroke="#1a1818" stroke-miterlimit="10" stroke-width="0.567"/>
    <line id="Line_108" data-name="Line 108" x1="30.7" transform="translate(64.514 1309.903)" fill="none" stroke="#1a1818" stroke-miterlimit="10" stroke-width="0.567"/>
    <line id="Line_109" data-name="Line 109" x1="10.233" transform="translate(16.758 1268.97)" fill="none" stroke="#1a1818" stroke-miterlimit="10" stroke-width="0.567"/>
    <line id="Line_110" data-name="Line 110" x2="10.233" y2="10.233" transform="translate(47.458 1268.97)" fill="none" stroke="#1a1818" stroke-miterlimit="10" stroke-width="0.567"/>
    <line id="Line_111" data-name="Line 111" x2="10.233" y2="10.233" transform="translate(156.614 1268.97)" fill="none" stroke="#1a1818" stroke-miterlimit="10" stroke-width="0.567"/>
    <line id="Line_112" data-name="Line 112" y2="51.167" transform="translate(156.614 1268.97)" fill="none" stroke="#1a1818" stroke-miterlimit="10" stroke-width="0.567"/>
    <line id="Line_113" data-name="Line 113" y2="51.167" transform="translate(177.081 1268.97)" fill="none" stroke="#1a1818" stroke-miterlimit="10" stroke-width="0.567"/>
    <line id="Line_114" data-name="Line 114" y2="40.934" transform="translate(166.847 1279.203)" fill="none" stroke="#1a1818" stroke-miterlimit="10" stroke-width="0.567"/>
    <line id="Line_115" data-name="Line 115" y2="40.934" transform="translate(187.314 1279.203)" fill="none" stroke="#1a1818" stroke-miterlimit="10" stroke-width="0.567"/>
    <line id="Line_116" data-name="Line 116" x2="10.233" y2="10.233" transform="translate(177.081 1268.97)" fill="none" stroke="#1a1818" stroke-miterlimit="10" stroke-width="0.567"/>
    <line id="Line_117" data-name="Line 117" x1="10.233" transform="translate(37.225 1268.97)" fill="none" stroke="#1a1818" stroke-miterlimit="10" stroke-width="0.567"/>
    <line id="Line_118" data-name="Line 118" x1="10.233" transform="translate(-92.663 1289.436)" fill="none" stroke="#1a1818" stroke-miterlimit="10" stroke-width="0.567"/>
    <line id="Line_119" data-name="Line 119" x1="10.233" transform="translate(-102.897 1299.67)" fill="none" stroke="#1a1818" stroke-miterlimit="10" stroke-width="0.567"/>
    <line id="Line_120" data-name="Line 120" y1="10.233" x2="10.233" transform="translate(-150.653 1309.904)" fill="none" stroke="#1a1818" stroke-miterlimit="10" stroke-width="0.567"/>
    <line id="Line_121" data-name="Line 121" y2="30.7" transform="translate(64.513 1279.203)" fill="none" stroke="#1a1818" stroke-miterlimit="10" stroke-width="0.567"/>
    <line id="Line_122" data-name="Line 122" y2="30.7" transform="translate(74.747 1279.203)" fill="none" stroke="#1a1818" stroke-miterlimit="10" stroke-width="0.567"/>
    <line id="Line_123" data-name="Line 123" y2="30.7" transform="translate(84.98 1279.203)" fill="none" stroke="#1a1818" stroke-miterlimit="10" stroke-width="0.567"/>
    <line id="Line_124" data-name="Line 124" y2="30.7" transform="translate(95.214 1279.203)" fill="none" stroke="#1a1818" stroke-miterlimit="10" stroke-width="0.567"/>
  </g>
</svg>
