<svg xmlns="http://www.w3.org/2000/svg" width="38.207" height="37.414" viewBox="0 0 38.207 37.414">
  <g id="Grupo_9" data-name="Grupo 9" transform="translate(-2043.5 -1134.293)">
    <rect id="Retângulo_8" data-name="Retângulo 8" width="19" height="18" transform="translate(2044 1135)" fill="#eee8d8" stroke="#161615" stroke-linejoin="round" stroke-width="1"/>
    <rect id="Retângulo_12" data-name="Retângulo 12" width="19" height="18" transform="translate(2044 1135)" fill="#eee8d8" stroke="#161615" stroke-linejoin="round" stroke-width="1"/>
    <rect id="Retângulo_9" data-name="Retângulo 9" width="19" height="18" transform="translate(2044 1153)" fill="#cbc3aa" stroke="#161615" stroke-linejoin="round" stroke-width="1"/>
    <rect id="Retângulo_13" data-name="Retângulo 13" width="19" height="18" transform="translate(2044 1153)" fill="#cbc3aa" stroke="#161615" stroke-linejoin="round" stroke-width="1"/>
    <rect id="Retângulo_10" data-name="Retângulo 10" width="25.456" height="25.456" transform="translate(2063 1135) rotate(45)" fill="#b3a995" stroke="#161615" stroke-linejoin="round" stroke-width="1"/>
    <rect id="Retângulo_14" data-name="Retângulo 14" width="25.456" height="25.456" transform="translate(2063 1135) rotate(45)" fill="#b3a995" stroke="#161615" stroke-linejoin="round" stroke-width="1"/>
    <path id="Caminho_13" data-name="Caminho 13" d="M3,16.357H18.536V14.631H3Zm0-4.316H18.536V10.316H3ZM3,6V7.726H18.536V6Z" transform="translate(2052.232 1141.821)" fill="#fff" stroke="#b3a995" stroke-width="0.5" opacity="0.56"/>
    <path id="Caminho_14" data-name="Caminho 14" d="M3,16.357H18.536V14.631H3Zm0-4.316H18.536V10.316H3ZM3,6V7.726H18.536V6Z" transform="translate(2052.232 1141.821)" fill="#fff" stroke="#b3a995" stroke-width="0.5" opacity="0.56"/>
  </g>
</svg>
